<svg xmlns="http://www.w3.org/2000/svg" viewBox="0 0 841.9 595.3"><g fill="#61DAFB"><path d="M666.3 296.5c0-32.5-40.7-63.3-103.1-82.4 14.4-63.6 8-114.2-20.2-130.4-6.5-3.8-14.1-5.6-22.4-5.6v22.3c4.6 0 8.3.9 11.4 2.6 13.6 7.8 19.5 37.5 14.9 75.7-1.1 9.4-2.9 19.3-5.1 29.4-19.6-4.8-41-8.5-63.5-10.9-13.5-18.5-27.5-35.3-41.6-50 32.6-30.3 63.2-46.9 84-46.9V78c-27.5 0-63.5 19.6-99.9 53.6-36.4-33.8-72.4-53.2-99.9-53.2v22.3c20.7 0 51.4 16.5 84 46.6-14 14.7-28 31.4-41.3 49.9-22.6 2.4-44 6.1-63.6 11-2.3-10-4-19.7-5.2-29-4.7-38.2 1.1-67.9 14.6-75.8 3-1.8 6.9-2.6 11.5-2.6V78.5c-8.4 0-16 1.8-22.6 5.6-28.1 16.2-34.4 66.7-19.9 130.1-62.2 19.2-102.7 49.9-102.7 82.3 0 32.5 40.7 63.3 103.1 82.4-14.4 63.6-8 114.2 20.2 130.4 6.5 3.8 14.1 5.6 22.5 5.6 27.5 0 63.5-19.6 99.9-53.6 36.4 33.8 72.4 53.2 99.9 53.2 8.4 0 16-1.8 22.6-5.6 28.1-16.2 34.4-66.7 19.9-130.1 62-19.1 102.5-49.9 102.5-82.3zm-130.2-66.7c-3.7 12.9-8.3 26.2-13.5 39.5-4.1-8-8.4-16-13.1-24-4.6-8-9.5-15.8-14.4-23.4 14.2 2.1 27.9 4.7 41 7.9zm-45.8 106.5c-7.8 13.5-15.8 26.3-24.1 38.2-14.9 1.3-30 2-45.2 2-15.1 0-30.2-.7-45-1.9-8.3-11.9-16.4-24.6-24.2-38-7.6-13.1-14.5-26.4-20.8-39.8 6.2-13.4 13.2-26.8 20.7-39.9 7.8-13.5 15.8-26.3 24.1-38.2 14.9-1.3 30-2 45.2-2 15.1 0 30.2.7 45 1.9 8.3 11.9 16.4 24.6 24.2 38 7.6 13.1 14.5 26.4 20.8 39.8-6.3 13.4-13.2 26.8-20.7 39.9zm32.3-13c5.4 13.4 10 26.8 13.8 39.8-13.1 3.2-26.9 5.9-41.2 8 4.9-7.7 9.8-15.6 14.4-23.7 4.6-8 8.9-16.1 13-24.1zM421.2 430c-9.3-9.6-18.6-20.3-27.8-32 9 .4 18.2.7 27.5.7 9.4 0 18.7-.2 27.8-.7-9 11.7-18.3 22.4-27.5 32zm-74.4-58.9c-14.2-2.1-27.9-4.7-41-7.9 3.7-12.9 8.3-26.2 13.5-39.5 4.1 8 8.4 16 13.1 24 4.7 8 9.5 15.8 14.4 23.4zM420.7 163c9.3 9.6 18.6 20.3 27.8 32-9-.4-18.2-.7-27.5-.7-9.4 0-18.7.2-27.8.7 9-11.7 18.3-22.4 27.5-32zm-74 58.9c-4.9 7.7-9.8 15.6-14.4 23.7-4.6 8-8.9 16-13 24-5.4-13.4-10-26.8-13.8-39.8 13.1-3.1 26.9-5.8 41.2-7.9zm-90.5 125.2c-35.4-15.1-58.3-34.9-58.3-50.6 0-15.7 22.9-35.6 58.3-50.6 8.6-3.7 18-7 27.7-10.1 5.7 19.6 13.2 40 22.5 60.9-9.2 20.8-16.6 41.1-22.2 60.6-9.9-3.1-19.3-6.5-28-10.2zM310 490c-13.6-7.8-19.5-37.5-14.9-75.7 1.1-9.4 2.9-19.3 5.1-29.4 19.6 4.8 41 8.5 63.5 10.9 13.5 18.5 27.5 35.3 41.6 50-32.6 30.3-63.2 46.9-84 46.9-4.5-.1-8.3-1-11.3-2.7zm237.2-76.2c4.7 38.2-1.1 67.9-14.6 75.8-3 1.8-6.9 2.6-11.5 2.6-20.7 0-51.4-16.5-84-46.6 14-14.7 28-31.4 41.3-49.9 22.6-2.4 44-6.1 63.6-11 2.3 10.1 4.1 19.8 5.2 29.1zm38.5-66.7c-8.6 3.7-18 7-27.7 10.1-5.7-19.6-13.2-40-22.5-60.9 9.2-20.8 16.6-41.1 22.2-60.6 9.9 3.1 19.3 6.5 28.1 10.2 35.4 15.1 58.3 34.9 58.3 50.6-.1 15.7-23 35.6-58.4 50.6zM320.8 78.4z"/><circle cx="420.9" cy="296.5" r="45.7"/><path d="M520.5 78.1z"/></g></svg>

<svg height="90" width="90" fill="hsl(258deg, 100%, 50%)" viewBox="0 0 90 90">
  <path d="M67.431,24.417c0.473-0.017,0.936,0.006,1.386,0.034c0.452,0.012,0.884,0.065,1.295,0.121    c0.413,0.044,0.802,0.1,1.155,0.183c0.355,0.074,0.682,0.142,0.971,0.202c0.284,0.083,0.532,0.155,0.736,0.214    c0.41,0.12,0.644,0.188,0.644,0.188s-0.224-0.096-0.617-0.263c-0.197-0.084-0.436-0.187-0.711-0.304    c-0.283-0.096-0.603-0.204-0.951-0.322c-0.348-0.126-0.733-0.23-1.146-0.326c-0.411-0.106-0.846-0.214-1.304-0.283    c-0.457-0.084-0.931-0.165-1.417-0.207c-0.485-0.063-0.981-0.1-1.479-0.116c-0.331-0.019-0.66-0.015-0.989-0.015    c-0.266-2.276-1.078-4.374-2.304-6.148c0,0,1.074-7.245-1.431-14.224c-0.376-1.047-6.477,8.908-6.477,8.908    c-0.807-0.165-1.642-0.256-2.495-0.256c-1.521,0-2.975,0.29-4.328,0.797c0,0-4.843-8.786-5.781-6.54    c-2.844,6.812-2.138,15.155-2.138,15.155c-0.364,1.237-0.563,2.552-0.563,3.913c0,0.027,0.004,0.053,0.004,0.079    c-0.461,0.017-0.922,0.053-1.373,0.115c-0.457,0.042-0.902,0.124-1.33,0.208c-0.431,0.068-0.837,0.178-1.222,0.284    c-0.386,0.096-0.746,0.201-1.07,0.327c-0.659,0.214-1.184,0.446-1.545,0.624c-0.364,0.167-0.571,0.262-0.571,0.262    s0.218-0.067,0.6-0.187c0.378-0.128,0.924-0.29,1.594-0.416c0.33-0.083,0.692-0.14,1.079-0.184    c0.384-0.054,0.788-0.109,1.211-0.121c0.42-0.028,0.854-0.052,1.296-0.035c0.44-0.004,0.887,0.018,1.333,0.06    c0.016,0.001,0.031,0.004,0.047,0.006c0.025,0.337,0.064,0.668,0.113,0.998c-0.03,0.009-0.06,0.015-0.09,0.024    c-0.904,0.262-1.783,0.607-2.577,0.978c-0.404,0.169-0.773,0.38-1.125,0.571c-0.356,0.184-0.681,0.376-0.968,0.575    c-0.594,0.365-1.053,0.717-1.366,0.973c-0.317,0.248-0.499,0.39-0.499,0.39s0.198-0.117,0.545-0.323    c0.341-0.213,0.836-0.501,1.462-0.783c0.303-0.158,0.643-0.305,1.012-0.438c0.364-0.143,0.743-0.299,1.155-0.412    c0.809-0.258,1.686-0.479,2.576-0.618c0.012-0.002,0.022-0.003,0.034-0.004c0.198,0.896,0.479,1.758,0.84,2.577    c-8.666,2.314-15.3,10.89-16.236,21.469c-4.863,2.672-9.69,7.991-7.482,18.488c1.472,6.992,15.749,16.109,22.629,16.306    c2.173,0.062,2.558-2.099,2.289-3.018c-1.806-6.171-14.185-4.764-19.696-15.691c-1.825-3.618-0.198-7.546,2.267-10.866    c1.085,11.989,9.484,21.383,19.858,21.987c1.287,1.342,3.125,2.2,5.187,2.2c2.771,0,5.148-1.535,6.293-3.749    c1.05,0.592,2.261,0.955,3.57,0.955c3.886,0,7.036-2.99,7.036-6.68c0-1.779-0.745-3.386-1.939-4.583    c0.12-0.997,0.211-2.04,0.272-3.121c1.073-2.963,1.667-6.224,1.667-9.647c0-7.336-2.742-13.906-7.073-18.428    c3.21-2.184,5.418-5.819,5.762-10.012c0.237,0.054,0.475,0.098,0.711,0.163c0.464,0.115,0.923,0.249,1.368,0.406    c0.453,0.137,0.884,0.309,1.3,0.482c0.424,0.158,0.815,0.349,1.186,0.534c0.376,0.176,0.726,0.355,1.033,0.547    c0.312,0.186,0.599,0.356,0.853,0.507c0.242,0.17,0.453,0.319,0.626,0.441c0.349,0.246,0.548,0.387,0.548,0.387    s-0.181-0.164-0.497-0.449c-0.159-0.144-0.353-0.318-0.575-0.518c-0.236-0.183-0.503-0.388-0.795-0.613    c-0.288-0.233-0.619-0.456-0.979-0.681c-0.354-0.234-0.73-0.478-1.142-0.69c-0.405-0.229-0.827-0.459-1.273-0.656    c-0.439-0.217-0.896-0.413-1.361-0.59c-0.314-0.128-0.634-0.234-0.953-0.343c0-0.023,0.002-0.046,0.002-0.069    c0-0.187-0.014-0.37-0.021-0.555c0.306-0.036,0.61-0.078,0.92-0.097C66.482,24.436,66.96,24.414,67.431,24.417z"></path>
</svg>